<svg width="18" height="20" viewBox="0 0 18 20" fill="#000" xmlns="http://www.w3.org/2000/svg">
<path d="M16 2.00073H15V0.000732422H13V2.00073H5V0.000732422H3V2.00073H2C0.89 2.00073 0.00999999 2.90073 0.00999999 4.00073L0 18.0007C0 19.1007 0.89 20.0007 2 20.0007H16C17.1 20.0007 18 19.1007 18 18.0007V4.00073C18 2.90073 17.1 2.00073 16 2.00073ZM16 18.0007H2V8.00073H16V18.0007ZM16 6.00073H2V4.00073H16V6.00073ZM6 12.0007H4V10.0007H6V12.0007ZM10 12.0007H8V10.0007H10V12.0007ZM14 12.0007H12V10.0007H14V12.0007ZM6 16.0007H4V14.0007H6V16.0007ZM10 16.0007H8V14.0007H10V16.0007ZM14 16.0007H12V14.0007H14V16.0007Z" />
</svg>
