<svg width="26" height="26" viewBox="0 0 26 26" fill="none" xmlns="http://www.w3.org/2000/svg">
<path d="M12.9988 5.02721C14.8615 4.99855 16.6629 5.69251 18.025 6.96346L21.6938 3.37596C19.34 1.17039 16.2242 -0.0390273 12.9988 0.000960935C10.5888 0.000404079 8.22626 0.670256 6.17526 1.93561C4.12425 3.20096 2.46567 5.01192 1.38501 7.16596L5.58876 10.4297C6.10277 8.86678 7.09443 7.50463 8.42388 6.53535C9.75334 5.56607 11.3535 5.03856 12.9988 5.02721Z" fill="#E43E2B"/>
<path d="M25.478 13.2903C25.4934 12.3967 25.401 11.5044 25.203 10.6328H12.998V15.4578H20.163C20.0271 16.3037 19.7215 17.1135 19.2646 17.8382C18.8077 18.563 18.2089 19.1879 17.5043 19.6753L21.6068 22.8528C22.8854 21.6184 23.8908 20.1296 24.5583 18.4825C25.2257 16.8353 25.5403 15.0666 25.4818 13.2903H25.478Z" fill="#3B7DED"/>
<path d="M5.60445 15.5723C5.32022 14.7447 5.17369 13.8761 5.1707 13.001C5.17589 12.1274 5.31716 11.2599 5.58945 10.4298L1.3857 7.16602C0.473944 8.97619 -0.000976562 10.9748 -0.000976562 13.0016C-0.000976562 15.0285 0.473944 17.0271 1.3857 18.8373L5.60445 15.5723Z" fill="#F0B501"/>
<path d="M13.0001 26.001C16.1667 26.0906 19.2473 24.9638 21.6089 22.8523L17.5064 19.6748C16.1762 20.5665 14.6009 21.021 13.0001 20.9748C11.3563 20.965 9.75726 20.4379 8.42988 19.4681C7.10251 18.4984 6.11419 17.1353 5.60512 15.5723L1.40137 18.8373C2.47912 20.9903 4.13498 22.8009 6.18351 24.0661C8.23204 25.3314 10.5924 26.0013 13.0001 26.001Z" fill="#2BA24C"/>
</svg>
