<svg width="20" height="19" viewBox="0 0 20 19" fill="none" xmlns="http://www.w3.org/2000/svg">
<ellipse cx="9.64966" cy="5.60517" rx="3.98169" ry="3.67987" stroke="#979797" stroke-width="1.5" stroke-linecap="round" stroke-linejoin="round"/>
<path fill-rule="evenodd" clip-rule="evenodd" d="M3.334 14.4031C3.33293 14.1445 3.39553 13.8889 3.51706 13.6559C3.89845 12.9509 4.97397 12.5773 5.86642 12.4081C6.51005 12.2812 7.16257 12.1964 7.81912 12.1543C9.03468 12.0557 10.2573 12.0557 11.4728 12.1543C12.1293 12.1969 12.7818 12.2817 13.4255 12.4081C14.318 12.5773 15.3935 12.9157 15.7749 13.6559C16.0193 14.1309 16.0193 14.6824 15.7749 15.1575C15.3935 15.8977 14.318 16.236 13.4255 16.3982C12.7827 16.5304 12.1299 16.6176 11.4728 16.659C10.4835 16.7365 9.48947 16.7507 8.498 16.7013C8.26916 16.7013 8.04796 16.7013 7.81912 16.659C7.16451 16.6181 6.51425 16.5309 5.87404 16.3982C4.97397 16.236 3.90608 15.8977 3.51706 15.1575C3.39615 14.9217 3.33361 14.664 3.334 14.4031Z" stroke="#979797" stroke-width="1.5" stroke-linecap="round" stroke-linejoin="round"/>
</svg>
