<svg width="20" height="22" viewBox="0 0 20 22" fill="none" xmlns="http://www.w3.org/2000/svg">
<g filter="url(#filter0_d_259_864)">
<path d="M15 14.08C14.24 14.08 13.56 14.38 13.04 14.85L5.91 10.7C5.96 10.47 6 10.24 6 10C6 9.76 5.96 9.53 5.91 9.3L12.96 5.19C13.5 5.69 14.21 6 15 6C15.7956 6 16.5587 5.68393 17.1213 5.12132C17.6839 4.55871 18 3.79565 18 3C18 2.20435 17.6839 1.44129 17.1213 0.87868C16.5587 0.316071 15.7956 0 15 0C14.2044 0 13.4413 0.316071 12.8787 0.87868C12.3161 1.44129 12 2.20435 12 3C12 3.24 12.04 3.47 12.09 3.7L5.04 7.81C4.5 7.31 3.79 7 3 7C2.20435 7 1.44129 7.31607 0.87868 7.87868C0.316071 8.44129 0 9.20435 0 10C0 10.7956 0.316071 11.5587 0.87868 12.1213C1.44129 12.6839 2.20435 13 3 13C3.79 13 4.5 12.69 5.04 12.19L12.16 16.34C12.11 16.55 12.08 16.77 12.08 17C12.08 18.61 13.39 19.91 15 19.91C16.61 19.91 17.92 18.61 17.92 17C17.92 16.2256 17.6124 15.4829 17.0648 14.9352C16.5171 14.3876 15.7744 14.08 15 14.08Z" fill="#000"/>
</g>
</svg>
