<svg width="22" height="22" viewBox="0 0 22 22" fill="#fff" xmlns="http://www.w3.org/2000/svg">
<path d="M2 15.2H6C6.06067 15.2 6.13136 15.2256 6.19274 15.2921C6.25587 15.3605 6.3 15.4644 6.3 15.5833V20.3H1.7V15.5833C1.7 15.4644 1.74413 15.3605 1.80726 15.2921C1.86864 15.2256 1.93933 15.2 2 15.2ZM9 8.7H13C13.0607 8.7 13.1314 8.7256 13.1927 8.7921C13.2559 8.86048 13.3 8.96439 13.3 9.08333V20.3H8.7V9.08333C8.7 8.96439 8.74413 8.86048 8.80726 8.7921C8.86864 8.7256 8.93934 8.7 9 8.7ZM16 11.95H20C20.0607 11.95 20.1314 11.9756 20.1927 12.0421C20.2559 12.1105 20.3 12.2144 20.3 12.3333V20.3H15.7V12.3333C15.7 12.2144 15.7441 12.1105 15.8073 12.0421C15.8686 11.9756 15.9393 11.95 16 11.95Z" stroke="#979797" stroke-width="1.4" fill="#fff"/>
<path d="M9.89112 2.72914L10.0977 2.69897L10.1911 2.51222L11 0.894427L11.8089 2.51222L11.9023 2.69897L12.1089 2.72914L13.5495 2.93947L12.3006 3.96959L12.1113 4.12578L12.1648 4.36535L12.5437 6.06207L11.2335 5.12006L11 4.95218L10.7665 5.12006L9.45631 6.06207L9.83522 4.36535L9.88872 4.12578L9.69936 3.96959L8.45047 2.93947L9.89112 2.72914Z" stroke="#979797" stroke-width="0.8" fill="#fff"/>
</svg>
