<svg width="18" height="20" viewBox="0 0 18 20" fill="#979797" xmlns="http://www.w3.org/2000/svg">
<path d="M16.3334 6.33346L10.8334 1.51179C10.3292 1.06084 9.67652 0.811523 9.00009 0.811523C8.32365 0.811523 7.67094 1.06084 7.16675 1.51179L1.66675 6.33346C1.37559 6.59386 1.14325 6.9133 0.985186 7.27052C0.827127 7.62773 0.746982 8.01452 0.750087 8.40513V16.4168C0.750087 17.1461 1.03982 17.8456 1.55554 18.3613C2.07127 18.8771 2.77074 19.1668 3.50009 19.1668H14.5001C15.2294 19.1668 15.9289 18.8771 16.4446 18.3613C16.9604 17.8456 17.2501 17.1461 17.2501 16.4168V8.39596C17.2519 8.00689 17.1711 7.62187 17.0131 7.26634C16.8551 6.9108 16.6234 6.59284 16.3334 6.33346ZM10.8334 17.3335H7.16675V12.7501C7.16675 12.507 7.26333 12.2739 7.43524 12.1019C7.60715 11.93 7.8403 11.8335 8.08342 11.8335H9.91675C10.1599 11.8335 10.393 11.93 10.5649 12.1019C10.7368 12.2739 10.8334 12.507 10.8334 12.7501V17.3335ZM15.4168 16.4168C15.4168 16.6599 15.3202 16.8931 15.1483 17.065C14.9764 17.2369 14.7432 17.3335 14.5001 17.3335H12.6668V12.7501C12.6668 12.0208 12.377 11.3213 11.8613 10.8056C11.3456 10.2899 10.6461 10.0001 9.91675 10.0001H8.08342C7.35407 10.0001 6.6546 10.2899 6.13888 10.8056C5.62315 11.3213 5.33342 12.0208 5.33342 12.7501V17.3335H3.50009C3.25697 17.3335 3.02381 17.2369 2.85191 17.065C2.68 16.8931 2.58342 16.6599 2.58342 16.4168V8.39596C2.58359 8.26581 2.61146 8.13718 2.6652 8.01864C2.71894 7.9001 2.79731 7.79436 2.89509 7.70846L8.39509 2.89596C8.56237 2.749 8.77742 2.66795 9.00009 2.66795C9.22275 2.66795 9.43781 2.749 9.60509 2.89596L15.1051 7.70846C15.2029 7.79436 15.2812 7.9001 15.335 8.01864C15.3887 8.13718 15.4166 8.26581 15.4168 8.39596V16.4168Z" />
</svg>
