<svg width="18" height="18" viewBox="0 0 18 18" fill="#000" xmlns="http://www.w3.org/2000/svg">
<path d="M9 0C4.032 0 0 4.032 0 9C0 13.968 4.032 18 9 18C13.968 18 18 13.968 18 9C18 4.032 13.968 0 9 0ZM4.815 14.85C5.994 14.004 7.434 13.5 9 13.5C10.566 13.5 12.006 14.004 13.185 14.85C12.006 15.696 10.566 16.2 9 16.2C7.434 16.2 5.994 15.696 4.815 14.85ZM14.526 13.608C13.005 12.42 11.088 11.7 9 11.7C6.912 11.7 4.995 12.42 3.474 13.608C2.43 12.357 1.8 10.755 1.8 9C1.8 5.022 5.022 1.8 9 1.8C12.978 1.8 16.2 5.022 16.2 9C16.2 10.755 15.57 12.357 14.526 13.608Z" />
<path d="M9 3.6C7.263 3.6 5.85 5.013 5.85 6.75C5.85 8.487 7.263 9.9 9 9.9C10.737 9.9 12.15 8.487 12.15 6.75C12.15 5.013 10.737 3.6 9 3.6ZM9 8.1C8.253 8.1 7.65 7.497 7.65 6.75C7.65 6.003 8.253 5.4 9 5.4C9.747 5.4 10.35 6.003 10.35 6.75C10.35 7.497 9.747 8.1 9 8.1Z" />
</svg>
